<?xml version="1.0" standalone="no"?><!-- Generator: Gravit.io --><svg xmlns="http://www.w3.org/2000/svg" xmlns:xlink="http://www.w3.org/1999/xlink" style="isolation:isolate" viewBox="0 0 595.276 338.995" width="595.276" height="338.995"><defs><clipPath id="_clipPath_Cfwl2kqCUXeiMludatRayR75mHP9d0Q0"><rect width="595.276" height="338.995"/></clipPath></defs><g clip-path="url(#_clipPath_Cfwl2kqCUXeiMludatRayR75mHP9d0Q0)"><g id="Group"><rect x="13.56" y="67.8" width="569.52" height="189.84" transform="matrix(1,0,0,1,0,0)" fill="rgb(207,216,220)"/><path d=" M 495.225 81.36 L 345.509 81.36 C 324.735 102.202 311.88 130.949 311.88 162.72 C 311.88 194.491 324.735 223.238 345.509 244.08 L 495.225 244.08 C 515.999 223.238 528.84 194.491 528.84 162.72 C 528.84 130.949 515.999 102.202 495.225 81.36 Z  M 420.36 189.84 C 410.669 189.838 401.715 184.665 396.871 176.271 C 392.027 167.876 392.03 157.536 396.878 149.144 C 401.726 140.752 410.682 135.584 420.374 135.586 C 435.355 135.59 447.497 147.738 447.494 162.72 C 447.49 177.702 435.342 189.844 420.36 189.84 L 420.36 189.84 Z  M 264.705 81.36 L 101.442 81.36 C 80.655 102.202 67.8 130.949 67.8 162.72 C 67.8 194.491 80.655 223.238 101.442 244.08 L 264.718 244.08 C 285.479 223.238 298.32 194.491 298.32 162.72 C 298.32 130.949 285.479 102.202 264.705 81.36 Z  M 176.28 189.84 C 166.589 189.838 157.635 184.665 152.791 176.271 C 147.947 167.876 147.95 157.536 152.798 149.144 C 157.646 140.752 166.602 135.584 176.294 135.586 C 191.275 135.59 203.417 147.738 203.414 162.72 C 203.41 177.702 191.262 189.844 176.28 189.84 L 176.28 189.84 Z " fill="rgb(55,71,79)"/><g id="Group"><path d=" M 0 0 L 0 339 L 596.64 339 L 596.64 0 L 0 0 Z  M 569.52 244.08 L 27.12 244.08 L 27.12 81.36 L 569.52 81.36 L 569.52 244.08 Z " fill="rgb(84,110,122)"/><rect x="189.84" y="67.8" width="216.96" height="189.84" transform="matrix(1,0,0,1,0,0)" fill="rgb(84,110,122)"/></g><rect x="216.96" y="81.36" width="162.72" height="162.72" transform="matrix(1,0,0,1,0,0)" fill="rgb(250,250,250)"/><rect x="216.96" y="189.84" width="162.72" height="54.24" transform="matrix(1,0,0,1,0,0)" fill="rgb(255,23,68)"/></g><g id="vjs-hex"><path d=" M 225.678 136.351 L 262.241 91.662 L 333.895 91.662 L 370.962 136.351 L 333.895 180.112 L 262.241 180.112 L 225.678 136.351 Z " fill="rgb(113,119,128)"/><path d=" M 239.604 136.351 L 266.233 101.825 L 310.741 101.825 L 284.144 136.351 L 310.741 169.95 L 266.233 169.95 L 239.604 136.351 Z " fill="rgb(236,238,241)"/><path d=" M 356.659 136.351 L 330.612 101.825 L 316.208 101.825 L 300.955 120.607 L 312.45 136.351 L 300.955 152.026 L 316.208 169.95 L 330.612 169.95 L 356.659 136.351 Z " fill="rgb(200,204,210)"/></g><g transform="matrix(1,0,0,1,216,189)"><text transform="matrix(1,0,0,1,37.773,42.711)" style="font-family:&quot;Comic Sans MS&quot;;font-weight:400;font-size:40px;font-style:normal;fill:#000000;stroke:none;">VHS</text></g></g></svg>