<svg width="568" height="310" version="1.1" baseProfile="full" viewbox="0 0 568 310" xmlns="http://www.w3.org/2000/svg" xmlns:xlink="http://www.w3.org/1999/xlink" xmlns:ev="http://www.w3.org/2001/xml-events" style="font-weight:bold; font-size:10pt; font-family:'Arial', Helvetica, sans-serif;;stroke-width:2;stroke-linejoin:round;stroke-linecap:round"><text x="474" y="111" style="font-weight:normal;">load()</text>
<path d="M454 81 L454 105 L454 129 L454 129 " style="stroke:#33322E;fill:none;stroke-dasharray:none;"></path>
<path d="M450.8 121 L454 125 L457.2 121 L454 129 Z" style="stroke:#33322E;fill:#33322E;stroke-dasharray:none;"></path>
<text x="474" y="211" style="font-weight:normal;">media()</text>
<path d="M454 181 L454 205 L454 229 L454 229 " style="stroke:#33322E;fill:none;stroke-dasharray:none;"></path>
<path d="M450.8 221 L454 225 L457.2 221 L454 229 Z" style="stroke:#33322E;fill:#33322E;stroke-dasharray:none;"></path>
<rect x="30" y="30" height="50" width="297" style="stroke:#33322E;fill:#fff;stroke-dasharray:4 4;"></rect>
<text x="50.3" y="60" style="">DASH Playlist Loader States</text>
<rect x="377" y="30" height="50" width="154" style="stroke:#33322E;fill:#eee8d5;stroke-dasharray:none;"></rect>
<text x="397" y="60" style="">HAVE_NOTHING</text>
<rect x="380" y="130" height="50" width="149" style="stroke:#33322E;fill:#eee8d5;stroke-dasharray:none;"></rect>
<text x="400" y="160" style="">HAVE_MASTER</text>
<rect x="370" y="230" height="50" width="168" style="stroke:#33322E;fill:#eee8d5;stroke-dasharray:none;"></rect>
<text x="390" y="260" style="">HAVE_METADATA</text></svg>