<svg width="558" height="610" version="1.1" baseProfile="full" viewbox="0 0 558 610" xmlns="http://www.w3.org/2000/svg" xmlns:xlink="http://www.w3.org/1999/xlink" xmlns:ev="http://www.w3.org/2001/xml-events" style="font-weight:bold; font-size:10pt; font-family:'Arial', Helvetica, sans-serif;;stroke-width:2;stroke-linejoin:round;stroke-linecap:round"><text x="426" y="111" style="font-weight:normal;">load()</text>
<path d="M406 81 L406 105 L406 129 L406 129 " style="stroke:#33322E;fill:none;stroke-dasharray:none;"></path>
<path d="M402.8 121 L406 125 L409.2 121 L406 129 Z" style="stroke:#33322E;fill:#33322E;stroke-dasharray:none;"></path>
<text x="426" y="211" style="font-weight:normal;">media()</text>
<path d="M406 181 L406 205 L406 229 L406 229 " style="stroke:#33322E;fill:none;stroke-dasharray:none;"></path>
<path d="M402.8 221 L406 225 L409.2 221 L406 229 Z" style="stroke:#33322E;fill:#33322E;stroke-dasharray:none;"></path>
<text x="426" y="311" style="font-weight:normal;">media()/ start()</text>
<path d="M406 281 L406 305 L406 329 L406 329 " style="stroke:#33322E;fill:none;stroke-dasharray:none;"></path>
<path d="M402.8 321 L406 325 L409.2 321 L406 329 Z" style="stroke:#33322E;fill:#33322E;stroke-dasharray:none;"></path>
<path d="M406 381 L406 405 L406 429 L406 429 " style="stroke:#33322E;fill:none;stroke-dasharray:4 4;"></path>
<path d="M402.8 421 L406 425 L409.2 421 L406 429 Z" style="stroke:#33322E;fill:#33322E;stroke-dasharray:none;"></path>
<path d="M409.2 389 L406 385 L402.8 389 L406 381 Z" style="stroke:#33322E;fill:#33322E;stroke-dasharray:none;"></path>
<path d="M406 481 L406 505 L406 529 L406 529 " style="stroke:#33322E;fill:none;stroke-dasharray:4 4;"></path>
<path d="M402.8 521 L406 525 L409.2 521 L406 529 Z" style="stroke:#33322E;fill:#33322E;stroke-dasharray:none;"></path>
<path d="M409.2 489 L406 485 L402.8 489 L406 481 Z" style="stroke:#33322E;fill:#33322E;stroke-dasharray:none;"></path>
<rect x="30" y="30" height="50" width="249" style="stroke:#33322E;fill:#fff;stroke-dasharray:4 4;"></rect>
<text x="50" y="60" style="">Playlist Loader States</text>
<rect x="329" y="30" height="50" width="154" style="stroke:#33322E;fill:#eee8d5;stroke-dasharray:none;"></rect>
<text x="349" y="60" style="">HAVE_NOTHING</text>
<rect x="332" y="130" height="50" width="149" style="stroke:#33322E;fill:#eee8d5;stroke-dasharray:none;"></rect>
<text x="352" y="160" style="">HAVE_MASTER</text>
<rect x="310" y="230" height="50" width="192" style="stroke:#33322E;fill:#eee8d5;stroke-dasharray:none;"></rect>
<text x="330.3" y="260" style="">SWITCHING_MEDIA</text>
<rect x="322" y="330" height="50" width="168" style="stroke:#33322E;fill:#eee8d5;stroke-dasharray:none;"></rect>
<text x="342" y="360" style="">HAVE_METADATA</text>
<text x="321" y="460" style="font-weight:normal;font-style:italic;">mediaupdatetimeout</text>
<rect x="284" y="530" height="50" width="244" style="stroke:#33322E;fill:#eee8d5;stroke-dasharray:none;"></rect>
<text x="304" y="560" style="">HAVE_CURRENT_METADATA</text></svg>